# xmcd CD database file
#
# Track frame offsets:
#	150
#	37255
#	60022
#	96150
#	116720
#	128557
#	150487
#	163305
#	175127
#	203507
#
# Disc length: 3002 seconds
#
# Revision: 0
# Processed by: cddbd v1.5.2PL0 Copyright (c) Steve Scherf et al.
# Submitted via: WildFire CD Ripper 
#
DISCID=7b0bb80a
DTITLE=Tor Dietrichson - Global Village
DYEAR=1987
DGENRE=New Age
TTITLE0=Global Village
TTITLE1=Rupak
TTITLE2=Shadow Puppets
TTITLE3=The Conjurer
TTITLE4=Tambo
TTITLE5=Carnival Rhumba
TTITLE6=Minarets
TTITLE7=Tabla Tala
TTITLE8=Khartoum
TTITLE9=Homeward Joureney
EXTD=YEAR: 1987
EXTT0=
EXTT1=
EXTT2=
EXTT3=
EXTT4=
EXTT5=
EXTT6=
EXTT7=
EXTT8=
EXTT9=
PLAYORDER=
